#!OML:ASF F:\VICON\USERDATA\Patient Classification 1\PLAYGROUND\JustinFriday\JustinFriday.ASF
:FULLY-SPECIFIED
:DEGREES
3932
root 31.6357 31.1806 -10.3039 12.6791 -34.6896 -13.9894
lowerback 21.6937 3.80498 3.52267
upperback 3.21262 6.02105 3.58524
thorax -8.60578 2.76594 0.206401
lowerneck -9.96917 2.92544 -6.04668
upperneck 23.8155 6.503 -5.70451
head 9.18309 1.83707 -0.247959
rclavicle -9.69075e-015 8.17502e-015
rhumerus 1.10548 -25.9612 -54.2504
rradius 107.688
rwrist 28.681
rhand -39.2486 -15.3835
rfingers 7.12502
rthumb -12.2434 -45.0051
lclavicle -9.69075e-015 8.17502e-015
lhumerus 36.3728 32.6319 55.4717
lradius 93.1884
lwrist -23.2237
lhand 6.69828 -1.22518
lfingers 7.12502
lthumb 31.9885 25.9831
rfemur -19.3148 -16.9904 39.1074
rtibia 40.5357
rfoot -18.96 -11.3011
rtoes 6.54589
lfemur -33.1657 5.22829 -8.20095
ltibia 46.3396
lfoot -15.3105 -14.473
ltoes -0.966007
3933
root 31.6233 31.1884 -10.2962 13.0263 -34.6499 -14.4422
lowerback 21.0263 3.11791 5.5867
upperback 3.76887 5.3609 2.06873
thorax -7.29059 2.42232 -2.33785
lowerneck -10.8127 3.40543 -3.99557
upperneck 23.5384 6.80912 -5.64115
head 9.2894 2.1628 -0.514967
rclavicle -5.56597e-015 8.74653e-015
rhumerus 1.44665 -27.3948 -57.4225
rradius 108.051
rwrist 29.4038
rhand -39.3122 -15.1953
rfingers 7.12502
rthumb -12.3046 -44.8133
lclavicle -5.56597e-015 8.74653e-015
lhumerus 38.212 33.0732 54.1766
lradius 93.3548
lwrist -21.1713
lhand 8.25776 -0.783727
lfingers 7.12502
lthumb 33.4721 26.1157
rfemur -19.2179 -16.603 39.5481
rtibia 40.3051
rfoot -18.8177 -11.5615
rtoes 6.04791
lfemur -33.1901 5.53443 -8.02696
ltibia 46.3293
lfoot -15.1369 -14.3097
ltoes 1.50092
3934
root 31.6115 31.1781 -10.291 13.9992 -34.4662 -15.7689
lowerback 21.0679 3.15232 6.30228
upperback 3.68698 5.59024 2.31758
thorax -7.34194 2.51305 -2.53165
lowerneck -11.1803 3.6779 -3.15017
upperneck 23.7605 7.23162 -6.33318
head 9.50109 2.33906 -0.83636
rclavicle -1.43125e-014 -3.53837e-014
rhumerus 0.991831 -27.8352 -57.4402
rradius 108.395
rwrist 29.2283
rhand -39.2563 -15.3842
rfingers 7.12502
rthumb -12.2508 -45.0054
lclavicle -1.43125e-014 -3.53837e-014
lhumerus 38.4912 33.037 54.6378
lradius 94.3971
lwrist -18.2183
lhand 9.72776 0.124504
lfingers 7.12502
lthumb 34.8681 26.7113
rfemur -19.3495 -16.3029 40.8621
rtibia 40.117
rfoot -18.6936 -11.8435
rtoes 5.42519
lfemur -33.4692 6.02674 -7.02469
ltibia 46.2692
lfoot -14.912 -14.1935
ltoes 3.52146
3935
root 31.5924 31.2152 -10.2389 13.5504 -34.8573 -15.0494
lowerback 20.9909 3.3383 5.66819
upperback 3.67487 5.66316 1.98063
thorax -7.33525 2.5623 -2.55556
lowerneck -11.7897 4.32502 -1.4777
upperneck 24.3271 8.15793 -7.47231
head 9.96048 2.74787 -1.38631
rclavicle -9.74045e-015 2.26615e-014
rhumerus 0.198778 -28.1558 -57.3844
rradius 108.719
rwrist 29.2726
rhand -39.7714 -15.9458
rfingers 7.12502
rthumb -12.7474 -45.5367
lclavicle -9.74045e-015 2.26615e-014
lhumerus 38.4157 32.833 54.8757
lradius 95.6234
lwrist -16.6022
lhand 10.5943 0.800746
lfingers 7.12502
lthumb 35.6898 27.1929
rfemur -18.9531 -16.4624 39.9028
rtibia 39.8976
rfoot -18.7038 -11.3162
rtoes 5.57851
lfemur -32.9232 5.88429 -8.02904
ltibia 46.0818
lfoot -15.2927 -12.9332
ltoes 2.65347
3936
root 31.5754 31.2351 -10.1984 13.1552 -34.935 -14.7296
lowerback 21.4772 3.84148 4.30683
upperback 3.47523 6.12788 2.6951
thorax -8.00897 2.79917 -1.19559
lowerneck -12.1122 4.33944 -1.60105
upperneck 25.2224 8.47017 -8.08398
head 10.3937 2.75809 -1.54035
rclavicle 4.07509e-015 2.98177e-014
rhumerus -0.842859 -28.3303 -55.5992
rradius 108.961
rwrist 29.1914
rhand -40.0546 -16.2218
rfingers 7.12502
rthumb -13.0204 -45.7955
lclavicle 4.07509e-015 2.98177e-014
lhumerus 37.5064 32.3696 56.1545
lradius 96.7554
lwrist -16.7761
lhand 10.5539 0.815212
lfingers 7.12502
lthumb 35.6515 27.2166
rfemur -18.4124 -16.5608 39.37
rtibia 39.7072
rfoot -18.6338 -11.1196
rtoes 5.25919
lfemur -32.307 5.82576 -8.57579
ltibia 45.797
lfoot -15.888 -11.7467
ltoes 0.852936
